<svg xmlns="http://www.w3.org/2000/svg" xmlns:xlink="http://www.w3.org/1999/xlink" version="1.1" id="Layer_1" viewBox="0 0 512 512" xml:space="preserve">
<path d="M0,355.2v-324c0.104-5.704,4.696-10.296,10.4-10.4h491.2c5.704,0.104,10.296,4.696,10.4,10.4v324H0z"/>
<g>
	<path style="fill:#BCBCBC;" d="M512,355.2v41.6c-0.104,5.704-4.696,10.296-10.4,10.4H10.4c-5.704-0.104-10.296-4.696-10.4-10.4   v-41.6H512z"/>
	<rect x="146.4" y="480.8" style="fill:#BCBCBC;" width="219.2" height="10.4"/>
</g>
<polygon style="fill:#666666;" points="328.8,480.8 183.2,480.8 193.6,407.2 318.4,407.2 "/>
<rect x="20.8" y="41.6" style="fill:#FFFFFF;" width="470.4" height="292.8"/>
<polygon style="fill:#333333;" points="318.4,407.2 193.6,407.2 187.792,448.28 320.272,420.424 "/>
<path style="fill:#E21B1B;" d="M433.312,256.536H232.648c-7.656-0.024-13.864-6.232-13.888-13.888V133.36  c0.024-7.656,6.232-13.864,13.888-13.888H433.32c7.656,0.032,13.856,6.232,13.88,13.888v109.288  C447.168,250.304,440.968,256.504,433.312,256.536z"/>
<path d="M82.792,220.976v-23.704L64.8,164.064h11.824l6.832,14.584c1.96,4.232,3.392,7.448,4.92,11.32h0.152  c1.456-3.624,3.032-7.2,5-11.32l6.832-14.584h11.728L93.168,197v24h-10.4L82.792,220.976z"/>
<path d="M149.184,200c0.848,11.208-7.552,20.984-18.76,21.832c-0.784,0.056-1.56,0.072-2.344,0.04  c-10.96,0.432-20.2-8.104-20.632-19.072c-0.024-0.696-0.016-1.4,0.032-2.096c-0.84-11.184,7.544-20.928,18.72-21.768  c0.864-0.064,1.736-0.072,2.6-0.032c10.888-0.392,20.032,8.12,20.416,19.008C149.248,198.608,149.232,199.304,149.184,200z   M118.2,200.456c0,7.904,3.872,13.928,10.2,13.928c5.92,0,10.064-5.808,10.064-14.128c0-6.4-2.888-13.768-9.968-13.768  c-7.336,0.016-10.288,7.112-10.288,13.992L118.2,200.456z"/>
<path d="M194.544,208.632c0,4.896,0.176,8.976,0.336,12.336h-9.128l-0.504-6.272h-0.16c-2.776,4.6-7.816,7.352-13.184,7.2  c-7.52,0-14.36-4.488-14.36-17.896v-24.168h10.4v22.4c0,6.832,2.216,11.272,7.696,11.272c4.752-0.152,8.52-4.048,8.52-8.8v-24.8  h10.4v28.8L194.544,208.632z"/>
<path d="M433.312,256.536H232.648c-7.656-0.024-13.864-6.232-13.888-13.888V133.36c0.024-7.656,6.232-13.864,13.888-13.888H433.32  c7.656,0.032,13.856,6.232,13.88,13.888v109.288C447.168,250.304,440.968,256.504,433.312,256.536z"/>
<g>
	<g>
		<path style="opacity:0.2;fill:#FFFFFF;enable-background:new    ;" d="M218.752,137.056v93.664    c0.024,1.744,0.312,3.472,0.856,5.128l138.28-116.384H218.832"/>
	</g>
</g>
<g>
	<path style="fill:#FFFFFF;" d="M260.648,172.736H244.44v-8.672h43.016v8.672h-16.4v48.24h-10.4L260.648,172.736z"/>
	<path style="fill:#FFFFFF;" d="M326.304,208.632c0,4.896,0.176,8.976,0.336,12.336h-9.136L317,214.696h-0.152   c-2.776,4.6-7.816,7.352-13.184,7.2c-7.52,0-14.36-4.488-14.36-17.896v-24.168h10.4v22.4c0,6.832,2.216,11.272,7.696,11.272   c4.752-0.152,8.52-4.048,8.52-8.8v-24.8h10.4L326.304,208.632z"/>
	<path style="fill:#FFFFFF;" d="M337.192,220.976c0.176-2.8,0.36-7.344,0.36-11.568v-48.392h10.4v24.472h0.176   c2.928-4.344,7.92-6.84,13.16-6.576c10.064,0,17.232,8.36,17.16,20.856c1.352,10.8-6.312,20.648-17.104,21.992   c-0.52,0.064-1.032,0.112-1.56,0.136c-5.32,0.272-10.344-2.464-13-7.088h-0.176l-0.504,6.168L337.192,220.976z M347.92,204   c-0.008,0.824,0.072,1.648,0.256,2.448c1.048,4.24,4.832,7.232,9.2,7.288c6.504,0,10.48-5.256,10.48-13.512   c0-7.288-3.464-13.208-10.4-13.208c-4.44,0.144-8.216,3.272-9.2,7.6c-0.2,0.888-0.312,1.792-0.336,2.704   C347.92,197.32,347.92,204,347.92,204z"/>
	<path style="fill:#FFFFFF;" d="M394.304,203.328c0.248,6.184,5.456,10.992,11.64,10.744c0.344-0.016,0.688-0.04,1.032-0.088   c3.888,0.088,7.752-0.552,11.4-1.888l1.528,7.2c-4.6,1.752-9.48,2.616-14.4,2.552c-10.712,0.976-20.184-6.912-21.16-17.624   c-0.096-1.056-0.104-2.12-0.032-3.176c-0.96-11.216,7.344-21.088,18.568-22.056c0.512-0.04,1.024-0.072,1.528-0.072   c9.888,0.016,17.896,8.04,17.88,17.928c0,0.704-0.04,1.408-0.128,2.112c0.008,1.472-0.104,2.936-0.336,4.392h-27.52   L394.304,203.328L394.304,203.328z M412.376,196.04c0.656-4.848-2.744-9.304-7.592-9.96c-0.312-0.04-0.632-0.072-0.944-0.08   c-5.304,0.328-9.464,4.688-9.536,10L412.376,196.04z"/>
</g>
</svg>